<svg xmlns="http://www.w3.org/2000/svg" xmlns:xlink="http://www.w3.org/1999/xlink" width="749" height="751" viewBox="0 0 749 751">
  <defs>
    <style>
      .cls-1 {
        fill: url(#linear-gradient);
      }

      .cls-2 {
        fill: none;
        stroke: #000;
      }

      .cls-3 {
        fill: #692626;
      }

      .cls-4 {
        fill: #bc4444;
      }
    </style>
    <linearGradient id="linear-gradient" x1="0.5" x2="0.5" y2="1" gradientUnits="objectBoundingBox">
      <stop offset="0" stop-color="#050303"/>
      <stop offset="0.631" stop-color="#b44"/>
      <stop offset="1" stop-color="#c64848"/>
    </linearGradient>
  </defs>
  <g id="Group_7" data-name="Group 7" transform="translate(-4454 -1732)">
    <ellipse id="Ellipse_8" data-name="Ellipse 8" cx="374.5" cy="375.5" rx="374.5" ry="375.5" transform="translate(4454 1732)"/>
    <g id="Group_6" data-name="Group 6" transform="translate(485 760)">
      <g id="Group_2" data-name="Group 2" transform="translate(-208 -1039)">
        <path id="rgba_36_36_36_1_" data-name="rgba(36,36,36,1)" class="cls-1" d="M400.5,122h29l19,5,15,7L485,150l13,17.5,8,16,6,23v25l-3,13-6,16-9,15L484,288h-2v2q-2.7-1.1-2,1.5l-3,1.5-1.5,3-4.5,3.5-1.5,2.5-2.5,1.5q.8,2.3-1.5,1.5l-2.5,4h-2v2h-2q1.1,2.7-1.5,2l-4.5,6h-2v2q-2.7-1.1-2,1.5l-4,3q.8,2.3-1.5,1.5l-3.5,5-4,2.5-1.5,2.5q-2.2-.7-1.5,1.5l-3,1.5v2h-2q1.1,2.7-1.5,2l-5,6-5,4-2.5,4-6,4.5-1.5,2.5-3,2-3,4-3.5,2.5-1.5,2.5-2.5,1.5-2.5,3.5q-2.2-.7-1.5,1.5l-4,2.5-2.5,4H381v2h-2v2q-2.7-1.1-2,1.5l-6,5-1.5,2.5-7.5,6.5-1.5,2.5-2.5,1.5V414h-2v2h-2v2h-2v2h-2v2h-2v2q-2.7-1.1-2,1.5l-9,7.5-2.5,4-2.5,1.5-6.5,7.5q-2.2-.7-1.5,1.5l-3,1.5q1.1,2.7-1.5,2l-8,6-9,1q-1.3-2.2-6-1l-9.5-7.5q-5.2-5.3-4-17l5-10,171-171q7.2-9.3,10-23v-20q-5-22-20.5-33.5l-18-9-9-2h-12q-23.9,4.1-36.5,19.5l-2.5,3.5L358,198.5q.8,2.3-1.5,1.5l-6.5,8h-1.5l-8.5,8.5q.8,2.3-1.5,1.5l-14,15-5.5,4.5V239h-2q1.1,2.7-1.5,2l-2.5,4h-2v2h-2q1.1,2.7-1.5,2l-2.5,4-4,2.5q.8,2.3-1.5,1.5l-3.5,5-7.5,5-11,2q-10.8-1.7-15.5-9.5-4.2-5.3-4-15l4-10L352.5,144l22-14Z" transform="translate(4220 2039)"/>
        <path id="rgba_36_36_36_1_2" data-name="rgba(36,36,36,1)" class="cls-1" d="M368.5,234q16.2-1.2,21.5,8.5l3,6v14l-2,4-80,80V348h-1.5L280,377.5q.8,2.3-1.5,1.5L249,408.5V410h-1.5L235,422.5q.8,2.3-1.5,1.5A77.788,77.788,0,0,0,210,454.5l-3,13v13q4.7,24.3,21.5,36.5l15,8,7,2,14,1,15-3,15-8,89-89,6-4h15l10.5,8.5q5,5.5,3,18l-3,6-26,26V484l-4,2.5q.8,2.3-1.5,1.5L354,517.5V519h-1.5l-8.5,8.5q.8,2.3-1.5,1.5a113.466,113.466,0,0,1-41,33l-17,6q-7.4-.9-11,2h-24q-42.9-7.6-64.5-36.5l-14-24-4-13v-5l-2-6v-25l3-14,5-14a97.757,97.757,0,0,1,15-23L359.5,238Z" transform="translate(4206 2033)"/>
      </g>
      <g id="Group_3" data-name="Group 3" transform="translate(-228 -948)">
        <path id="rgba_36_36_36_1_3" data-name="rgba(36,36,36,1)" class="cls-2" d="M400.5,122h29l19,5,15,7L485,150l13,17.5,8,16,6,23v25l-3,13-6,16-9,15L484,288h-2v2q-2.7-1.1-2,1.5l-3,1.5-1.5,3-4.5,3.5-1.5,2.5-2.5,1.5q.8,2.3-1.5,1.5l-2.5,4h-2v2h-2q1.1,2.7-1.5,2l-4.5,6h-2v2q-2.7-1.1-2,1.5l-4,3q.8,2.3-1.5,1.5l-3.5,5-4,2.5-1.5,2.5q-2.2-.7-1.5,1.5l-3,1.5v2h-2q1.1,2.7-1.5,2l-5,6-5,4-2.5,4-6,4.5-1.5,2.5-3,2-3,4-3.5,2.5-1.5,2.5-2.5,1.5-2.5,3.5q-2.2-.7-1.5,1.5l-4,2.5-2.5,4H381v2h-2v2q-2.7-1.1-2,1.5l-6,5-1.5,2.5-7.5,6.5-1.5,2.5-2.5,1.5V414h-2v2h-2v2h-2v2h-2v2h-2v2q-2.7-1.1-2,1.5l-9,7.5-2.5,4-2.5,1.5-6.5,7.5q-2.2-.7-1.5,1.5l-3,1.5q1.1,2.7-1.5,2l-8,6-9,1q-1.3-2.2-6-1l-9.5-7.5q-5.2-5.3-4-17l5-10,171-171q7.2-9.3,10-23v-20q-5-22-20.5-33.5l-18-9-9-2h-12q-23.9,4.1-36.5,19.5l-2.5,3.5L358,198.5q.8,2.3-1.5,1.5l-6.5,8h-1.5l-8.5,8.5q.8,2.3-1.5,1.5l-14,15-5.5,4.5V239h-2q1.1,2.7-1.5,2l-2.5,4h-2v2h-2q1.1,2.7-1.5,2l-2.5,4-4,2.5q.8,2.3-1.5,1.5l-3.5,5-7.5,5-11,2q-10.8-1.7-15.5-9.5-4.2-5.3-4-15l4-10L352.5,144l22-14Z" transform="translate(4213 1959)"/>
        <path id="rgba_36_36_36_1_4" data-name="rgba(36,36,36,1)" class="cls-2" d="M368.5,234q16.2-1.2,21.5,8.5l3,6v14l-2,4-80,80V348h-1.5L280,377.5q.8,2.3-1.5,1.5L249,408.5V410h-1.5L235,422.5q.8,2.3-1.5,1.5A77.788,77.788,0,0,0,210,454.5l-3,13v13q4.7,24.3,21.5,36.5l15,8,7,2,14,1,15-3,15-8,89-89,6-4h15l10.5,8.5q5,5.5,3,18l-3,6-26,26V484l-4,2.5q.8,2.3-1.5,1.5L354,517.5V519h-1.5l-8.5,8.5q.8,2.3-1.5,1.5a113.466,113.466,0,0,1-41,33l-17,6q-7.4-.9-11,2h-24q-42.9-7.6-64.5-36.5l-14-24-4-13v-5l-2-6v-25l3-14,5-14a97.757,97.757,0,0,1,15-23L359.5,238Z" transform="translate(4239 1950.313)"/>
      </g>
      <ellipse id="Ellipse_4" data-name="Ellipse 4" class="cls-3" cx="38.5" cy="41" rx="38.5" ry="41" transform="translate(4176 1218)"/>
      <ellipse id="Ellipse_5" data-name="Ellipse 5" class="cls-4" cx="36" cy="35.5" rx="36" ry="35.5" transform="translate(4431 1363)"/>
    </g>
  </g>
</svg>
