<svg xmlns="http://www.w3.org/2000/svg" xmlns:xlink="http://www.w3.org/1999/xlink" width="1751" height="784" viewBox="0 0 1751 784">
  <defs>
    <style>
      .cls-1 {
        stroke: #707070;
      }

      .cls-2 {
        fill: url(#linear-gradient);
      }

      .cls-10, .cls-3, .cls-6 {
        fill: none;
      }

      .cls-3 {
        stroke: #000;
      }

      .cls-4 {
        fill: #692626;
      }

      .cls-5 {
        fill: #bc4444;
      }

      .cls-7, .cls-8 {
        fill: #fff;
        font-family: Cochin;
      }

      .cls-7 {
        font-size: 250px;
      }

      .cls-8 {
        font-size: 75px;
      }

      .cls-11, .cls-9 {
        stroke: none;
      }
    </style>
    <linearGradient id="linear-gradient" x1="0.5" x2="0.5" y2="1" gradientUnits="objectBoundingBox">
      <stop offset="0" stop-color="#050303"/>
      <stop offset="0.631" stop-color="#b44"/>
      <stop offset="1" stop-color="#c64848"/>
    </linearGradient>
  </defs>
  <g id="Group_6" data-name="Group 6" transform="translate(-4008 -919)">
    <g id="Rectangle_1" data-name="Rectangle 1" class="cls-1" transform="translate(4008 919)">
      <rect class="cls-9" width="1751" height="784" rx="100"/>
      <rect class="cls-10" x="0.5" y="0.5" width="1750" height="783" rx="99.5"/>
    </g>
    <g id="Group_5" data-name="Group 5" transform="translate(61 -815)">
      <ellipse id="Ellipse_6" data-name="Ellipse 6" cx="374.5" cy="375.5" rx="374.5" ry="375.5" transform="translate(3977 1751)"/>
      <g id="Group_4" data-name="Group 4" transform="translate(8 779)">
        <g id="Group_2" data-name="Group 2" transform="translate(-208 -1039)">
          <path id="rgba_36_36_36_1_" data-name="rgba(36,36,36,1)" class="cls-2" d="M400.5,122h29l19,5,15,7L485,150l13,17.5,8,16,6,23v25l-3,13-6,16-9,15L484,288h-2v2q-2.7-1.1-2,1.5l-3,1.5-1.5,3-4.5,3.5-1.5,2.5-2.5,1.5q.8,2.3-1.5,1.5l-2.5,4h-2v2h-2q1.1,2.7-1.5,2l-4.5,6h-2v2q-2.7-1.1-2,1.5l-4,3q.8,2.3-1.5,1.5l-3.5,5-4,2.5-1.5,2.5q-2.2-.7-1.5,1.5l-3,1.5v2h-2q1.1,2.7-1.5,2l-5,6-5,4-2.5,4-6,4.5-1.5,2.5-3,2-3,4-3.5,2.5-1.5,2.5-2.5,1.5-2.5,3.5q-2.2-.7-1.5,1.5l-4,2.5-2.5,4H381v2h-2v2q-2.7-1.1-2,1.5l-6,5-1.5,2.5-7.5,6.5-1.5,2.5-2.5,1.5V414h-2v2h-2v2h-2v2h-2v2h-2v2q-2.7-1.1-2,1.5l-9,7.5-2.5,4-2.5,1.5-6.5,7.5q-2.2-.7-1.5,1.5l-3,1.5q1.1,2.7-1.5,2l-8,6-9,1q-1.3-2.2-6-1l-9.5-7.5q-5.2-5.3-4-17l5-10,171-171q7.2-9.3,10-23v-20q-5-22-20.5-33.5l-18-9-9-2h-12q-23.9,4.1-36.5,19.5l-2.5,3.5L358,198.5q.8,2.3-1.5,1.5l-6.5,8h-1.5l-8.5,8.5q.8,2.3-1.5,1.5l-14,15-5.5,4.5V239h-2q1.1,2.7-1.5,2l-2.5,4h-2v2h-2q1.1,2.7-1.5,2l-2.5,4-4,2.5q.8,2.3-1.5,1.5l-3.5,5-7.5,5-11,2q-10.8-1.7-15.5-9.5-4.2-5.3-4-15l4-10L352.5,144l22-14Z" transform="translate(4220 2039)"/>
          <path id="rgba_36_36_36_1_2" data-name="rgba(36,36,36,1)" class="cls-2" d="M368.5,234q16.2-1.2,21.5,8.5l3,6v14l-2,4-80,80V348h-1.5L280,377.5q.8,2.3-1.5,1.5L249,408.5V410h-1.5L235,422.5q.8,2.3-1.5,1.5A77.788,77.788,0,0,0,210,454.5l-3,13v13q4.7,24.3,21.5,36.5l15,8,7,2,14,1,15-3,15-8,89-89,6-4h15l10.5,8.5q5,5.5,3,18l-3,6-26,26V484l-4,2.5q.8,2.3-1.5,1.5L354,517.5V519h-1.5l-8.5,8.5q.8,2.3-1.5,1.5a113.466,113.466,0,0,1-41,33l-17,6q-7.4-.9-11,2h-24q-42.9-7.6-64.5-36.5l-14-24-4-13v-5l-2-6v-25l3-14,5-14a97.757,97.757,0,0,1,15-23L359.5,238Z" transform="translate(4206 2033)"/>
        </g>
        <g id="Group_3" data-name="Group 3" transform="translate(-228 -948)">
          <path id="rgba_36_36_36_1_3" data-name="rgba(36,36,36,1)" class="cls-3" d="M400.5,122h29l19,5,15,7L485,150l13,17.5,8,16,6,23v25l-3,13-6,16-9,15L484,288h-2v2q-2.7-1.1-2,1.5l-3,1.5-1.5,3-4.5,3.5-1.5,2.5-2.5,1.5q.8,2.3-1.5,1.5l-2.5,4h-2v2h-2q1.1,2.7-1.5,2l-4.5,6h-2v2q-2.7-1.1-2,1.5l-4,3q.8,2.3-1.5,1.5l-3.5,5-4,2.5-1.5,2.5q-2.2-.7-1.5,1.5l-3,1.5v2h-2q1.1,2.7-1.5,2l-5,6-5,4-2.5,4-6,4.5-1.5,2.5-3,2-3,4-3.5,2.5-1.5,2.5-2.5,1.5-2.5,3.5q-2.2-.7-1.5,1.5l-4,2.5-2.5,4H381v2h-2v2q-2.7-1.1-2,1.5l-6,5-1.5,2.5-7.5,6.5-1.5,2.5-2.5,1.5V414h-2v2h-2v2h-2v2h-2v2h-2v2q-2.7-1.1-2,1.5l-9,7.5-2.5,4-2.5,1.5-6.5,7.5q-2.2-.7-1.5,1.5l-3,1.5q1.1,2.7-1.5,2l-8,6-9,1q-1.3-2.2-6-1l-9.5-7.5q-5.2-5.3-4-17l5-10,171-171q7.2-9.3,10-23v-20q-5-22-20.5-33.5l-18-9-9-2h-12q-23.9,4.1-36.5,19.5l-2.5,3.5L358,198.5q.8,2.3-1.5,1.5l-6.5,8h-1.5l-8.5,8.5q.8,2.3-1.5,1.5l-14,15-5.5,4.5V239h-2q1.1,2.7-1.5,2l-2.5,4h-2v2h-2q1.1,2.7-1.5,2l-2.5,4-4,2.5q.8,2.3-1.5,1.5l-3.5,5-7.5,5-11,2q-10.8-1.7-15.5-9.5-4.2-5.3-4-15l4-10L352.5,144l22-14Z" transform="translate(4213 1959)"/>
          <path id="rgba_36_36_36_1_4" data-name="rgba(36,36,36,1)" class="cls-3" d="M368.5,234q16.2-1.2,21.5,8.5l3,6v14l-2,4-80,80V348h-1.5L280,377.5q.8,2.3-1.5,1.5L249,408.5V410h-1.5L235,422.5q.8,2.3-1.5,1.5A77.788,77.788,0,0,0,210,454.5l-3,13v13q4.7,24.3,21.5,36.5l15,8,7,2,14,1,15-3,15-8,89-89,6-4h15l10.5,8.5q5,5.5,3,18l-3,6-26,26V484l-4,2.5q.8,2.3-1.5,1.5L354,517.5V519h-1.5l-8.5,8.5q.8,2.3-1.5,1.5a113.466,113.466,0,0,1-41,33l-17,6q-7.4-.9-11,2h-24q-42.9-7.6-64.5-36.5l-14-24-4-13v-5l-2-6v-25l3-14,5-14a97.757,97.757,0,0,1,15-23L359.5,238Z" transform="translate(4239 1950.313)"/>
        </g>
        <ellipse id="Ellipse_4" data-name="Ellipse 4" class="cls-4" cx="38.5" cy="41" rx="38.5" ry="41" transform="translate(4176 1218)"/>
        <ellipse id="Ellipse_5" data-name="Ellipse 5" class="cls-5" cx="36" cy="35.5" rx="36" ry="35.5" transform="translate(4431 1363)"/>
      </g>
      <g id="Ellipse_7" data-name="Ellipse 7" class="cls-3" transform="translate(4199 2013)">
        <ellipse class="cls-9" cx="24.5" cy="25.5" rx="24.5" ry="25.5"/>
        <ellipse class="cls-10" cx="24.5" cy="25.5" rx="24" ry="25"/>
      </g>
      <g id="Path_1" data-name="Path 1" class="cls-6" transform="translate(4451 2152)">
        <path class="cls-9" d="M24.5,0C38.031,0,49,11.417,49,25.5S38.031,51,24.5,51,0,39.583,0,25.5,10.969,0,24.5,0Z"/>
        <path class="cls-11" d="M 24.5 1 C 21.33210945129395 1 18.25913047790527 1.645698547363281 15.36640930175781 2.919151306152344 C 12.56912994384766 4.150588989257812 10.05606079101562 5.914409637451172 7.896991729736328 8.161598205566406 C 5.735221862792969 10.41159820556641 4.037761688232422 13.03224182128906 2.851760864257812 15.95072937011719 C 1.623020172119141 18.97436141967773 1 22.18720054626465 1 25.5 C 1 28.81279945373535 1.623020172119141 32.02564239501953 2.851760864257812 35.04927062988281 C 4.037761688232422 37.96775817871094 5.735221862792969 40.58840179443359 7.896991729736328 42.83840179443359 C 10.05606079101562 45.08559036254883 12.56912994384766 46.84941101074219 15.36640930175781 48.08084869384766 C 18.25913047790527 49.35430145263672 21.33210945129395 50 24.5 50 C 27.66787910461426 50 30.74086952209473 49.35430145263672 33.63359069824219 48.08084869384766 C 36.43085861206055 46.84941101074219 38.94393920898438 45.08559036254883 41.10301208496094 42.83840179443359 C 43.2647705078125 40.58840179443359 44.96224212646484 37.96775817871094 46.14823913574219 35.04927062988281 C 47.37697982788086 32.02564239501953 48 28.81279945373535 48 25.5 C 48 22.18720054626465 47.37697982788086 18.97436141967773 46.14823913574219 15.95072937011719 C 44.96224212646484 13.03224182128906 43.2647705078125 10.41159820556641 41.10301208496094 8.161598205566406 C 38.94393920898438 5.914409637451172 36.43085861206055 4.150588989257812 33.63359069824219 2.919151306152344 C 30.74086952209473 1.645698547363281 27.66787910461426 1 24.5 1 M 24.5 0 C 38.03096771240234 0 49 11.41674041748047 49 25.5 C 49 39.58325958251953 38.03096771240234 51 24.5 51 C 10.96902084350586 51 0 39.58325958251953 0 25.5 C 0 11.41674041748047 10.96902084350586 0 24.5 0 Z"/>
      </g>
    </g>
    <text id="Get_linkd" data-name="Get linkd" class="cls-7" transform="translate(4694 1325)"><tspan x="0" y="0">Get linkd</tspan></text>
    <text id="for_last_minute_engineers" data-name="for last minute engineers" class="cls-8" transform="translate(4802 1412)"><tspan x="0" y="0">for last minute engineers</tspan></text>
  </g>
</svg>
